<!DOCTYPE svg PUBLIC "-//W3C//DTD SVG 1.1//EN" "http://www.w3.org/Graphics/SVG/1.1/DTD/svg11.dtd">

<!-- Uploaded to: SVG Repo, www.svgrepo.com, Transformed by: SVG Repo Mixer Tools -->
<svg height="800px" width="800px" version="1.1" id="Layer_1" xmlns="http://www.w3.org/2000/svg" xmlns:xlink="http://www.w3.org/1999/xlink" viewBox="0 0 512 512" xml:space="preserve" fill="#000000">

<g id="SVGRepo_bgCarrier" stroke-width="0"/>

<g id="SVGRepo_tracerCarrier" stroke-linecap="round" stroke-linejoin="round"/>

<g id="SVGRepo_iconCarrier"> <path style="fill:#62D2A2;" d="M447.983,144.592h-52.262c-9.22,0-16.696-7.475-16.696-16.696V72.451 c0-9.22,7.475-16.696,16.696-16.696h52.262c9.22,0,16.696,7.475,16.696,16.696v55.445 C464.679,137.117,457.205,144.592,447.983,144.592z"/> <path style="fill:#9DF3C4;" d="M316.626,144.592H195.381c-9.22,0-16.696-7.475-16.696-16.696v-41.65 c0-9.22,7.475-16.696,16.696-16.696h121.245c9.22,0,16.696,7.475,16.696,16.696v41.65 C333.322,137.117,325.847,144.592,316.626,144.592z"/> <path style="fill:#62D2A2;" d="M316.626,69.551H256v75.041h60.626c9.22,0,16.696-7.475,16.696-16.696v-41.65 C333.322,77.026,325.847,69.551,316.626,69.551z"/> <path style="fill:#9DF3C4;" d="M116.286,144.592H64.023c-9.22,0-16.696-7.475-16.696-16.696V72.451 c0-9.22,7.475-16.696,16.696-16.696h52.263c9.22,0,16.696,7.475,16.696,16.696v55.445 C132.982,137.117,125.507,144.592,116.286,144.592z"/> <path style="fill:#D7FBE8;" d="M461.913,456.244H50.087C22.469,456.244,0,433.775,0,406.157v-244.87 c0-27.618,22.469-50.087,50.087-50.087h411.826c27.618,0,50.087,22.469,50.087,50.087v244.87 C512,433.776,489.531,456.244,461.913,456.244z"/> <g> <path style="fill:#9DF3C4;" d="M461.913,111.201H256v345.043h205.913c27.618,0,50.087-22.469,50.087-50.087v-244.87 C512,133.67,489.531,111.201,461.913,111.201z"/> <path style="fill:#9DF3C4;" d="M309.461,354.167H202.545c-9.22,0-16.696-7.475-16.696-16.696V229.975 c0-9.22,7.475-16.696,16.696-16.696h106.916c9.22,0,16.696,7.475,16.696,16.696v107.497 C326.156,346.692,318.681,354.167,309.461,354.167z"/> </g> <g> <path style="fill:#62D2A2;" d="M309.461,213.279H256v140.888h53.461c9.22,0,16.696-7.475,16.696-16.696V229.975 C326.156,220.754,318.681,213.279,309.461,213.279z"/> <path style="fill:#62D2A2;" d="M154.894,372.253c-48.816,0-88.53-39.715-88.53-88.53c0-48.815,39.715-88.529,88.53-88.529 c48.815,0,88.529,39.714,88.529,88.529C243.424,332.54,203.71,372.253,154.894,372.253z"/> </g> <path style="fill:#9DF3C4;" d="M154.894,321.891c-21.045,0-38.168-17.123-38.168-38.168s17.123-38.167,38.168-38.167 s38.167,17.122,38.167,38.167C193.062,304.768,175.94,321.891,154.894,321.891z"/> <path style="fill:#1FAB89;" d="M357.113,372.253c-48.815,0-88.529-39.715-88.529-88.53c0-48.815,39.715-88.529,88.529-88.529 s88.529,39.714,88.529,88.529C445.643,332.54,405.928,372.253,357.113,372.253z"/> <path style="fill:#62D2A2;" d="M357.113,321.891c-21.045,0-38.168-17.123-38.168-38.168s17.123-38.167,38.168-38.167 c21.045,0,38.168,17.122,38.168,38.167C395.282,304.768,378.159,321.891,357.113,321.891z"/> </g>

</svg>